<svg width="93" height="62" viewBox="0 0 93 62" fill="none" xmlns="http://www.w3.org/2000/svg">
<path d="M35.875 42.75C34.7062 42.75 33.7057 42.3339 32.8734 41.5016C32.0411 40.6693 31.625 39.6688 31.625 38.5C31.625 37.3312 32.0411 36.3307 32.8734 35.4984C33.7057 34.6661 34.7062 34.25 35.875 34.25C37.0437 34.25 38.0443 34.6661 38.8766 35.4984C39.7089 36.3307 40.125 37.3312 40.125 38.5C40.125 39.6688 39.7089 40.6693 38.8766 41.5016C38.0443 42.3339 37.0437 42.75 35.875 42.75ZM57.125 42.75C55.9562 42.75 54.9557 42.3339 54.1234 41.5016C53.2911 40.6693 52.875 39.6688 52.875 38.5C52.875 37.3312 53.2911 36.3307 54.1234 35.4984C54.9557 34.6661 55.9562 34.25 57.125 34.25C58.2937 34.25 59.2943 34.6661 60.1266 35.4984C60.9589 36.3307 61.375 37.3312 61.375 38.5C61.375 39.6688 60.9589 40.6693 60.1266 41.5016C59.2943 42.3339 58.2937 42.75 57.125 42.75ZM34.0687 8.75L39.1687 19.375H54.0437L59.8875 8.75H34.0687ZM32.05 4.5H63.3937C64.2083 4.5 64.8281 4.86302 65.2531 5.58906C65.6781 6.3151 65.6958 7.05 65.3062 7.79375L57.7625 21.3938C57.3729 22.1021 56.8505 22.651 56.1953 23.0406C55.5401 23.4302 54.8229 23.625 54.0437 23.625H38.2125L35.875 27.875H61.375V32.125H35.875C34.2812 32.125 33.0771 31.4255 32.2625 30.0266C31.4479 28.6276 31.4125 27.2375 32.1562 25.8563L35.025 20.65L27.375 4.5H23.125V0.25H30.0312L32.05 4.5Z" fill="white"/>
<path d="M27.8795 57L30.8605 49.3H32.0705L35.0295 57H33.7645L32.0045 52.358C31.9825 52.3067 31.9385 52.182 31.8725 51.984C31.8138 51.786 31.7442 51.566 31.6635 51.324C31.5828 51.082 31.5095 50.862 31.4435 50.664C31.3775 50.4587 31.3335 50.3267 31.3115 50.268L31.5645 50.257C31.5205 50.3817 31.4655 50.5393 31.3995 50.73C31.3408 50.9207 31.2748 51.1223 31.2015 51.335C31.1355 51.5477 31.0695 51.7493 31.0035 51.94C30.9375 52.1233 30.8825 52.2773 30.8385 52.402L29.0895 57H27.8795ZM29.1995 55.086L29.6395 53.942H33.1375L33.6435 55.086H29.1995ZM39.1346 57.11C38.8853 57.11 38.636 57.0697 38.3866 56.989C38.1446 56.9083 37.921 56.802 37.7156 56.67C37.5176 56.5307 37.349 56.3803 37.2096 56.219C37.0776 56.0503 36.9896 55.8817 36.9456 55.713L37.2316 55.559V56.967H36.0986V48.86H37.2316V52.545L37.0556 52.446C37.0923 52.2773 37.173 52.116 37.2976 51.962C37.4223 51.8007 37.58 51.6577 37.7706 51.533C37.9686 51.401 38.1813 51.2983 38.4086 51.225C38.636 51.1443 38.867 51.104 39.1016 51.104C39.6223 51.104 40.0843 51.2323 40.4876 51.489C40.891 51.7457 41.21 52.1013 41.4446 52.556C41.6793 53.0033 41.7966 53.5167 41.7966 54.096C41.7966 54.6753 41.6793 55.1923 41.4446 55.647C41.2173 56.1017 40.902 56.461 40.4986 56.725C40.0953 56.9817 39.6406 57.11 39.1346 57.11ZM38.9476 56.076C39.285 56.076 39.5856 55.9917 39.8496 55.823C40.1136 55.647 40.3226 55.4123 40.4766 55.119C40.6306 54.8183 40.7076 54.4773 40.7076 54.096C40.7076 53.722 40.6306 53.3883 40.4766 53.095C40.33 52.7943 40.1246 52.5597 39.8606 52.391C39.5966 52.2223 39.2923 52.138 38.9476 52.138C38.603 52.138 38.2986 52.2223 38.0346 52.391C37.7706 52.5597 37.5616 52.7943 37.4076 53.095C37.2536 53.3883 37.1766 53.722 37.1766 54.096C37.1766 54.4773 37.2536 54.8183 37.4076 55.119C37.5616 55.4123 37.7706 55.647 38.0346 55.823C38.2986 55.9917 38.603 56.076 38.9476 56.076ZM45.2494 57.11C44.7727 57.11 44.3364 56.978 43.9404 56.714C43.5517 56.45 43.24 56.0907 43.0054 55.636C42.7707 55.1813 42.6534 54.668 42.6534 54.096C42.6534 53.5167 42.7707 53.0033 43.0054 52.556C43.2474 52.1013 43.57 51.7457 43.9734 51.489C44.384 51.2323 44.8424 51.104 45.3484 51.104C45.649 51.104 45.924 51.148 46.1734 51.236C46.4227 51.324 46.639 51.4487 46.8224 51.61C47.013 51.764 47.167 51.9437 47.2844 52.149C47.409 52.3543 47.486 52.5743 47.5154 52.809L47.2624 52.721V51.225H48.4064V57H47.2624V55.625L47.5264 55.548C47.4824 55.746 47.3907 55.9403 47.2514 56.131C47.1194 56.3143 46.947 56.4793 46.7344 56.626C46.529 56.7727 46.298 56.89 46.0414 56.978C45.792 57.066 45.528 57.11 45.2494 57.11ZM45.5464 56.065C45.891 56.065 46.1954 55.9807 46.4594 55.812C46.7234 55.6433 46.9287 55.4123 47.0754 55.119C47.2294 54.8183 47.3064 54.4773 47.3064 54.096C47.3064 53.722 47.2294 53.3883 47.0754 53.095C46.9287 52.8017 46.7234 52.5707 46.4594 52.402C46.1954 52.2333 45.891 52.149 45.5464 52.149C45.209 52.149 44.9084 52.2333 44.6444 52.402C44.3877 52.5707 44.1824 52.8017 44.0284 53.095C43.8817 53.3883 43.8084 53.722 43.8084 54.096C43.8084 54.4773 43.8817 54.8183 44.0284 55.119C44.1824 55.4123 44.3877 55.6433 44.6444 55.812C44.9084 55.9807 45.209 56.065 45.5464 56.065ZM51.9133 57.11C51.4293 57.11 50.993 57.0257 50.6043 56.857C50.2156 56.6883 49.893 56.439 49.6363 56.109L50.4063 55.449C50.6263 55.7057 50.8646 55.8927 51.1213 56.01C51.3853 56.12 51.6823 56.175 52.0123 56.175C52.1443 56.175 52.2653 56.1603 52.3753 56.131C52.4926 56.0943 52.5916 56.043 52.6723 55.977C52.7603 55.911 52.8263 55.834 52.8703 55.746C52.9143 55.6507 52.9363 55.548 52.9363 55.438C52.9363 55.2473 52.8666 55.0933 52.7273 54.976C52.654 54.9247 52.5366 54.8697 52.3753 54.811C52.2213 54.745 52.0196 54.679 51.7703 54.613C51.345 54.503 50.9966 54.3783 50.7253 54.239C50.454 54.0997 50.245 53.942 50.0983 53.766C49.9883 53.6267 49.9076 53.4763 49.8563 53.315C49.805 53.1463 49.7793 52.963 49.7793 52.765C49.7793 52.523 49.8306 52.303 49.9333 52.105C50.0433 51.8997 50.19 51.7237 50.3733 51.577C50.564 51.423 50.784 51.3057 51.0333 51.225C51.29 51.1443 51.5613 51.104 51.8473 51.104C52.1186 51.104 52.3863 51.1407 52.6503 51.214C52.9216 51.2873 53.171 51.3937 53.3983 51.533C53.6256 51.6723 53.8163 51.8373 53.9703 52.028L53.3213 52.743C53.182 52.6037 53.028 52.4827 52.8593 52.38C52.698 52.27 52.533 52.1857 52.3643 52.127C52.1956 52.0683 52.0416 52.039 51.9023 52.039C51.7483 52.039 51.609 52.0537 51.4843 52.083C51.3596 52.1123 51.2533 52.1563 51.1653 52.215C51.0846 52.2737 51.0223 52.347 50.9783 52.435C50.9343 52.523 50.9123 52.622 50.9123 52.732C50.9196 52.8273 50.9416 52.919 50.9783 53.007C51.0223 53.0877 51.081 53.1573 51.1543 53.216C51.235 53.2747 51.356 53.337 51.5173 53.403C51.6786 53.469 51.884 53.5313 52.1333 53.59C52.5 53.6853 52.8006 53.7917 53.0353 53.909C53.2773 54.019 53.468 54.1473 53.6073 54.294C53.754 54.4333 53.8566 54.5947 53.9153 54.778C53.974 54.9613 54.0033 55.1667 54.0033 55.394C54.0033 55.724 53.908 56.021 53.7173 56.285C53.534 56.5417 53.2846 56.7433 52.9693 56.89C52.654 57.0367 52.302 57.11 51.9133 57.11ZM55.967 57V49.751H57.1V57H55.967ZM54.768 52.325V51.225H58.442V52.325H54.768ZM62.0159 57.11C61.4513 57.11 60.9453 56.9817 60.4979 56.725C60.0579 56.461 59.7096 56.1053 59.4529 55.658C59.1963 55.2033 59.0679 54.6863 59.0679 54.107C59.0679 53.5277 59.1963 53.0143 59.4529 52.567C59.7096 52.1123 60.0579 51.7567 60.4979 51.5C60.9453 51.236 61.4513 51.104 62.0159 51.104C62.5733 51.104 63.0719 51.236 63.5119 51.5C63.9593 51.7567 64.3113 52.1123 64.5679 52.567C64.8246 53.0143 64.9529 53.5277 64.9529 54.107C64.9529 54.6863 64.8246 55.2033 64.5679 55.658C64.3113 56.1053 63.9593 56.461 63.5119 56.725C63.0719 56.9817 62.5733 57.11 62.0159 57.11ZM62.0159 56.076C62.3606 56.076 62.6686 55.9917 62.9399 55.823C63.2113 55.647 63.4239 55.4123 63.5779 55.119C63.7319 54.8183 63.8053 54.481 63.7979 54.107C63.8053 53.7257 63.7319 53.3883 63.5779 53.095C63.4239 52.7943 63.2113 52.5597 62.9399 52.391C62.6686 52.2223 62.3606 52.138 62.0159 52.138C61.6713 52.138 61.3596 52.226 61.0809 52.402C60.8096 52.5707 60.5969 52.8053 60.4429 53.106C60.2889 53.3993 60.2156 53.733 60.2229 54.107C60.2156 54.481 60.2889 54.8183 60.4429 55.119C60.5969 55.4123 60.8096 55.647 61.0809 55.823C61.3596 55.9917 61.6713 56.076 62.0159 56.076Z" fill="white"/>
</svg>
