<svg width="93" height="66" viewBox="0 0 93 66" fill="none" xmlns="http://www.w3.org/2000/svg">
<path d="M46.5 50.0833C45.1479 50.0833 43.9905 49.6019 43.0276 48.639C42.0648 47.6762 41.5833 46.5187 41.5833 45.1666H51.4167C51.4167 46.5187 50.9352 47.6762 49.9724 48.639C49.0095 49.6019 47.8521 50.0833 46.5 50.0833ZM36.6667 42.7083V37.7916H56.3333V42.7083H36.6667ZM37.2812 35.3333C34.4542 33.6534 32.2109 31.4 30.5516 28.5729C28.8922 25.7458 28.0625 22.6729 28.0625 19.3541C28.0625 14.2326 29.855 9.8793 33.4401 6.29423C37.0252 2.70916 41.3785 0.916626 46.5 0.916626C51.6215 0.916626 55.9748 2.70916 59.5599 6.29423C63.145 9.8793 64.9375 14.2326 64.9375 19.3541C64.9375 22.6729 64.1078 25.7458 62.4484 28.5729C60.7891 31.4 58.5458 33.6534 55.7188 35.3333H37.2812ZM38.7563 30.4166H54.2437C56.0875 29.1055 57.5113 27.4871 58.5151 25.5614C59.5189 23.6357 60.0208 21.5666 60.0208 19.3541C60.0208 15.5847 58.7097 12.3888 56.0875 9.76663C53.4653 7.1444 50.2694 5.83329 46.5 5.83329C42.7306 5.83329 39.5347 7.1444 36.9125 9.76663C34.2903 12.3888 32.9792 15.5847 32.9792 19.3541C32.9792 21.5666 33.4811 23.6357 34.4849 25.5614C35.4887 27.4871 36.9125 29.1055 38.7563 30.4166Z" fill="white"/>
<path d="M13.9637 61.11C13.4284 61.11 12.9371 61.0147 12.4897 60.824C12.0424 60.6333 11.6537 60.362 11.3237 60.01C10.9937 59.6507 10.7371 59.229 10.5537 58.745C10.3777 58.261 10.2897 57.7293 10.2897 57.15C10.2897 56.6 10.3851 56.0903 10.5757 55.621C10.7737 55.1443 11.0451 54.7263 11.3897 54.367C11.7344 54.0077 12.1341 53.729 12.5887 53.531C13.0434 53.333 13.5347 53.234 14.0627 53.234C14.4367 53.234 14.7997 53.2927 15.1517 53.41C15.5111 53.52 15.8337 53.6777 16.1197 53.883C16.4131 54.081 16.6514 54.3083 16.8347 54.565L16.0427 55.39C15.8301 55.1773 15.6137 55.0013 15.3937 54.862C15.1811 54.7153 14.9611 54.6053 14.7337 54.532C14.5137 54.4587 14.2901 54.422 14.0627 54.422C13.7034 54.422 13.3661 54.4917 13.0507 54.631C12.7427 54.763 12.4714 54.95 12.2367 55.192C12.0094 55.434 11.8297 55.7237 11.6977 56.061C11.5657 56.391 11.4997 56.754 11.4997 57.15C11.4997 57.568 11.5621 57.9493 11.6867 58.294C11.8187 58.6313 12.0021 58.921 12.2367 59.163C12.4714 59.405 12.7501 59.592 13.0727 59.724C13.4027 59.8487 13.7657 59.911 14.1617 59.911C14.4037 59.911 14.6421 59.878 14.8767 59.812C15.1114 59.746 15.3314 59.6507 15.5367 59.526C15.7421 59.4013 15.9291 59.2547 16.0977 59.086L16.6917 60.054C16.5231 60.252 16.2921 60.4317 15.9987 60.593C15.7127 60.7543 15.3901 60.8827 15.0307 60.978C14.6787 61.066 14.3231 61.11 13.9637 61.11ZM20.6155 61.11C20.0509 61.11 19.5449 60.9817 19.0975 60.725C18.6575 60.461 18.3092 60.1053 18.0525 59.658C17.7959 59.2033 17.6675 58.6863 17.6675 58.107C17.6675 57.5277 17.7959 57.0143 18.0525 56.567C18.3092 56.1123 18.6575 55.7567 19.0975 55.5C19.5449 55.236 20.0509 55.104 20.6155 55.104C21.1729 55.104 21.6715 55.236 22.1115 55.5C22.5589 55.7567 22.9109 56.1123 23.1675 56.567C23.4242 57.0143 23.5525 57.5277 23.5525 58.107C23.5525 58.6863 23.4242 59.2033 23.1675 59.658C22.9109 60.1053 22.5589 60.461 22.1115 60.725C21.6715 60.9817 21.1729 61.11 20.6155 61.11ZM20.6155 60.076C20.9602 60.076 21.2682 59.9917 21.5395 59.823C21.8109 59.647 22.0235 59.4123 22.1775 59.119C22.3315 58.8183 22.4049 58.481 22.3975 58.107C22.4049 57.7257 22.3315 57.3883 22.1775 57.095C22.0235 56.7943 21.8109 56.5597 21.5395 56.391C21.2682 56.2223 20.9602 56.138 20.6155 56.138C20.2709 56.138 19.9592 56.226 19.6805 56.402C19.4092 56.5707 19.1965 56.8053 19.0425 57.106C18.8885 57.3993 18.8152 57.733 18.8225 58.107C18.8152 58.481 18.8885 58.8183 19.0425 59.119C19.1965 59.4123 19.4092 59.647 19.6805 59.823C19.9592 59.9917 20.2709 60.076 20.6155 60.076ZM24.7651 61V55.225H25.9091V56.457L25.7001 56.589C25.7588 56.3983 25.8505 56.215 25.9751 56.039C26.1071 55.863 26.2648 55.709 26.4481 55.577C26.6388 55.4377 26.8405 55.3277 27.0531 55.247C27.2731 55.1663 27.4968 55.126 27.7241 55.126C28.0541 55.126 28.3438 55.181 28.5931 55.291C28.8425 55.401 29.0478 55.566 29.2091 55.786C29.3705 56.006 29.4878 56.281 29.5611 56.611L29.3851 56.567L29.4621 56.38C29.5428 56.2113 29.6528 56.0537 29.7921 55.907C29.9388 55.753 30.1038 55.6173 30.2871 55.5C30.4705 55.3827 30.6648 55.291 30.8701 55.225C31.0755 55.159 31.2771 55.126 31.4751 55.126C31.9078 55.126 32.2635 55.214 32.5421 55.39C32.8281 55.566 33.0408 55.8337 33.1801 56.193C33.3268 56.5523 33.4001 56.9997 33.4001 57.535V61H32.2561V57.601C32.2561 57.271 32.2121 57.0033 32.1241 56.798C32.0435 56.5853 31.9188 56.4277 31.7501 56.325C31.5815 56.2223 31.3651 56.171 31.1011 56.171C30.8958 56.171 30.7015 56.2077 30.5181 56.281C30.3421 56.347 30.1881 56.4423 30.0561 56.567C29.9241 56.6917 29.8215 56.8383 29.7481 57.007C29.6748 57.1683 29.6381 57.348 29.6381 57.546V61H28.4941V57.579C28.4941 57.2783 28.4501 57.0253 28.3621 56.82C28.2741 56.6073 28.1458 56.446 27.9771 56.336C27.8085 56.226 27.6031 56.171 27.3611 56.171C27.1558 56.171 26.9651 56.2077 26.7891 56.281C26.6131 56.347 26.4591 56.4423 26.3271 56.567C26.1951 56.6843 26.0925 56.8273 26.0191 56.996C25.9458 57.1573 25.9091 57.3333 25.9091 57.524V61H24.7651ZM34.917 63.42V55.225H36.061V56.545L35.885 56.446C35.929 56.226 36.0537 56.017 36.259 55.819C36.4643 55.6137 36.7137 55.4487 37.007 55.324C37.3077 55.192 37.6157 55.126 37.931 55.126C38.4517 55.126 38.9137 55.2543 39.317 55.511C39.7203 55.7677 40.0393 56.1197 40.274 56.567C40.5087 57.0143 40.626 57.5277 40.626 58.107C40.626 58.679 40.5087 59.1923 40.274 59.647C40.0467 60.0943 39.7313 60.45 39.328 60.714C38.9247 60.9707 38.47 61.099 37.964 61.099C37.6267 61.099 37.3003 61.033 36.985 60.901C36.6697 60.7617 36.402 60.5857 36.182 60.373C35.962 60.1603 35.8263 59.9403 35.775 59.713L36.061 59.559V63.42H34.917ZM37.777 60.054C38.1143 60.054 38.415 59.9697 38.679 59.801C38.943 59.6323 39.152 59.4013 39.306 59.108C39.46 58.8147 39.537 58.481 39.537 58.107C39.537 57.733 39.46 57.403 39.306 57.117C39.1593 56.8237 38.954 56.5927 38.69 56.424C38.426 56.2553 38.1217 56.171 37.777 56.171C37.4323 56.171 37.128 56.2553 36.864 56.424C36.6 56.5853 36.391 56.8127 36.237 57.106C36.083 57.3993 36.006 57.733 36.006 58.107C36.006 58.481 36.083 58.8147 36.237 59.108C36.391 59.4013 36.6 59.6323 36.864 59.801C37.128 59.9697 37.4323 60.054 37.777 60.054ZM44.4525 61.11C43.8878 61.11 43.3818 60.9817 42.9345 60.725C42.4945 60.461 42.1461 60.1053 41.8895 59.658C41.6328 59.2033 41.5045 58.6863 41.5045 58.107C41.5045 57.5277 41.6328 57.0143 41.8895 56.567C42.1461 56.1123 42.4945 55.7567 42.9345 55.5C43.3818 55.236 43.8878 55.104 44.4525 55.104C45.0098 55.104 45.5085 55.236 45.9485 55.5C46.3958 55.7567 46.7478 56.1123 47.0045 56.567C47.2611 57.0143 47.3895 57.5277 47.3895 58.107C47.3895 58.6863 47.2611 59.2033 47.0045 59.658C46.7478 60.1053 46.3958 60.461 45.9485 60.725C45.5085 60.9817 45.0098 61.11 44.4525 61.11ZM44.4525 60.076C44.7971 60.076 45.1051 59.9917 45.3765 59.823C45.6478 59.647 45.8605 59.4123 46.0145 59.119C46.1685 58.8183 46.2418 58.481 46.2345 58.107C46.2418 57.7257 46.1685 57.3883 46.0145 57.095C45.8605 56.7943 45.6478 56.5597 45.3765 56.391C45.1051 56.2223 44.7971 56.138 44.4525 56.138C44.1078 56.138 43.7961 56.226 43.5175 56.402C43.2461 56.5707 43.0335 56.8053 42.8795 57.106C42.7255 57.3993 42.6521 57.733 42.6595 58.107C42.6521 58.481 42.7255 58.8183 42.8795 59.119C43.0335 59.4123 43.2461 59.647 43.5175 59.823C43.7961 59.9917 44.1078 60.076 44.4525 60.076ZM48.624 61V55.225H49.757V56.413L49.559 56.545C49.6324 56.2883 49.7754 56.0537 49.988 55.841C50.2007 55.621 50.4537 55.445 50.747 55.313C51.0404 55.1737 51.341 55.104 51.649 55.104C52.089 55.104 52.4557 55.192 52.749 55.368C53.0424 55.5367 53.2624 55.797 53.409 56.149C53.5557 56.501 53.629 56.9447 53.629 57.48V61H52.496V57.557C52.496 57.227 52.452 56.9557 52.364 56.743C52.276 56.523 52.1404 56.3653 51.957 56.27C51.7737 56.1673 51.5464 56.1233 51.275 56.138C51.055 56.138 50.8534 56.1747 50.67 56.248C50.4867 56.314 50.3254 56.4093 50.186 56.534C50.054 56.6587 49.9477 56.8053 49.867 56.974C49.7937 57.1353 49.757 57.3113 49.757 57.502V61H49.196C49.1007 61 49.0054 61 48.91 61C48.8147 61 48.7194 61 48.624 61ZM57.861 61.11C57.267 61.11 56.739 60.9853 56.277 60.736C55.8224 60.4793 55.463 60.131 55.199 59.691C54.9424 59.251 54.814 58.745 54.814 58.173C54.814 57.7183 54.8874 57.304 55.034 56.93C55.1807 56.556 55.3824 56.2333 55.639 55.962C55.903 55.6833 56.2147 55.4707 56.574 55.324C56.9407 55.17 57.3367 55.093 57.762 55.093C58.136 55.093 58.4844 55.1663 58.807 55.313C59.1297 55.4523 59.4084 55.6467 59.643 55.896C59.885 56.1453 60.0684 56.4423 60.193 56.787C60.325 57.1243 60.3874 57.4947 60.38 57.898L60.369 58.382H55.65L55.397 57.48H59.39L59.225 57.667V57.403C59.203 57.161 59.1224 56.9447 58.983 56.754C58.8437 56.5633 58.6677 56.413 58.455 56.303C58.2424 56.193 58.0114 56.138 57.762 56.138C57.366 56.138 57.0324 56.215 56.761 56.369C56.4897 56.5157 56.2844 56.7357 56.145 57.029C56.0057 57.315 55.936 57.6707 55.936 58.096C55.936 58.4993 56.0204 58.8513 56.189 59.152C56.3577 59.4453 56.596 59.6727 56.904 59.834C57.212 59.9953 57.5677 60.076 57.971 60.076C58.257 60.076 58.521 60.0283 58.763 59.933C59.0124 59.8377 59.28 59.6653 59.566 59.416L60.138 60.219C59.962 60.395 59.7457 60.549 59.489 60.681C59.2397 60.813 58.972 60.9193 58.686 61C58.4074 61.0733 58.1324 61.11 57.861 61.11ZM61.6113 61V55.225H62.7443V56.413L62.5463 56.545C62.6197 56.2883 62.7627 56.0537 62.9753 55.841C63.188 55.621 63.441 55.445 63.7343 55.313C64.0277 55.1737 64.3283 55.104 64.6363 55.104C65.0763 55.104 65.443 55.192 65.7363 55.368C66.0297 55.5367 66.2497 55.797 66.3963 56.149C66.543 56.501 66.6163 56.9447 66.6163 57.48V61H65.4833V57.557C65.4833 57.227 65.4393 56.9557 65.3513 56.743C65.2633 56.523 65.1277 56.3653 64.9443 56.27C64.761 56.1673 64.5337 56.1233 64.2623 56.138C64.0423 56.138 63.8407 56.1747 63.6573 56.248C63.474 56.314 63.3127 56.4093 63.1733 56.534C63.0413 56.6587 62.935 56.8053 62.8543 56.974C62.781 57.1353 62.7443 57.3113 62.7443 57.502V61H62.1833C62.088 61 61.9927 61 61.8973 61C61.802 61 61.7067 61 61.6113 61ZM68.8683 61V53.751H70.0013V61H68.8683ZM67.6693 56.325V55.225H71.3433V56.325H67.6693ZM75.0163 61.11C74.4223 61.11 73.8943 60.9853 73.4323 60.736C72.9776 60.4793 72.6183 60.131 72.3543 59.691C72.0976 59.251 71.9693 58.745 71.9693 58.173C71.9693 57.7183 72.0426 57.304 72.1893 56.93C72.336 56.556 72.5376 56.2333 72.7943 55.962C73.0583 55.6833 73.37 55.4707 73.7293 55.324C74.096 55.17 74.492 55.093 74.9173 55.093C75.2913 55.093 75.6396 55.1663 75.9623 55.313C76.285 55.4523 76.5636 55.6467 76.7983 55.896C77.0403 56.1453 77.2236 56.4423 77.3483 56.787C77.4803 57.1243 77.5426 57.4947 77.5353 57.898L77.5243 58.382H72.8053L72.5523 57.48H76.5453L76.3803 57.667V57.403C76.3583 57.161 76.2776 56.9447 76.1383 56.754C75.999 56.5633 75.823 56.413 75.6103 56.303C75.3976 56.193 75.1666 56.138 74.9173 56.138C74.5213 56.138 74.1876 56.215 73.9163 56.369C73.645 56.5157 73.4396 56.7357 73.3003 57.029C73.161 57.315 73.0913 57.6707 73.0913 58.096C73.0913 58.4993 73.1756 58.8513 73.3443 59.152C73.513 59.4453 73.7513 59.6727 74.0593 59.834C74.3673 59.9953 74.723 60.076 75.1263 60.076C75.4123 60.076 75.6763 60.0283 75.9183 59.933C76.1676 59.8377 76.4353 59.6653 76.7213 59.416L77.2933 60.219C77.1173 60.395 76.901 60.549 76.6443 60.681C76.395 60.813 76.1273 60.9193 75.8413 61C75.5626 61.0733 75.2876 61.11 75.0163 61.11ZM80.6916 61.11C80.2076 61.11 79.7713 61.0257 79.3826 60.857C78.9939 60.6883 78.6713 60.439 78.4146 60.109L79.1846 59.449C79.4046 59.7057 79.6429 59.8927 79.8996 60.01C80.1636 60.12 80.4606 60.175 80.7906 60.175C80.9226 60.175 81.0436 60.1603 81.1536 60.131C81.2709 60.0943 81.3699 60.043 81.4506 59.977C81.5386 59.911 81.6046 59.834 81.6486 59.746C81.6926 59.6507 81.7146 59.548 81.7146 59.438C81.7146 59.2473 81.6449 59.0933 81.5056 58.976C81.4323 58.9247 81.3149 58.8697 81.1536 58.811C80.9996 58.745 80.7979 58.679 80.5486 58.613C80.1233 58.503 79.7749 58.3783 79.5036 58.239C79.2323 58.0997 79.0233 57.942 78.8766 57.766C78.7666 57.6267 78.6859 57.4763 78.6346 57.315C78.5833 57.1463 78.5576 56.963 78.5576 56.765C78.5576 56.523 78.6089 56.303 78.7116 56.105C78.8216 55.8997 78.9683 55.7237 79.1516 55.577C79.3423 55.423 79.5623 55.3057 79.8116 55.225C80.0683 55.1443 80.3396 55.104 80.6256 55.104C80.8969 55.104 81.1646 55.1407 81.4286 55.214C81.6999 55.2873 81.9493 55.3937 82.1766 55.533C82.4039 55.6723 82.5946 55.8373 82.7486 56.028L82.0996 56.743C81.9603 56.6037 81.8063 56.4827 81.6376 56.38C81.4763 56.27 81.3113 56.1857 81.1426 56.127C80.9739 56.0683 80.8199 56.039 80.6806 56.039C80.5266 56.039 80.3873 56.0537 80.2626 56.083C80.1379 56.1123 80.0316 56.1563 79.9436 56.215C79.8629 56.2737 79.8006 56.347 79.7566 56.435C79.7126 56.523 79.6906 56.622 79.6906 56.732C79.6979 56.8273 79.7199 56.919 79.7566 57.007C79.8006 57.0877 79.8593 57.1573 79.9326 57.216C80.0133 57.2747 80.1343 57.337 80.2956 57.403C80.4569 57.469 80.6623 57.5313 80.9116 57.59C81.2783 57.6853 81.5789 57.7917 81.8136 57.909C82.0556 58.019 82.2463 58.1473 82.3856 58.294C82.5323 58.4333 82.6349 58.5947 82.6936 58.778C82.7523 58.9613 82.7816 59.1667 82.7816 59.394C82.7816 59.724 82.6863 60.021 82.4956 60.285C82.3123 60.5417 82.0629 60.7433 81.7476 60.89C81.4323 61.0367 81.0803 61.11 80.6916 61.11Z" fill="white"/>
</svg>
