<svg width="91" height="63" viewBox="0 0 91 63" fill="none" xmlns="http://www.w3.org/2000/svg">
<path d="M28.1807 57.75V50.05H29.3687V57.75H28.1807ZM23.1537 57.75V50.05H24.3417V57.75H23.1537ZM23.6707 54.483V53.339H28.7087V54.483H23.6707ZM31.4228 57.75V51.975H32.5558V57.75H31.4228ZM31.9728 50.699C31.7308 50.699 31.5438 50.6367 31.4118 50.512C31.2798 50.3873 31.2138 50.2113 31.2138 49.984C31.2138 49.7713 31.2798 49.599 31.4118 49.467C31.5512 49.335 31.7382 49.269 31.9728 49.269C32.2148 49.269 32.4018 49.3313 32.5338 49.456C32.6658 49.5807 32.7318 49.7567 32.7318 49.984C32.7318 50.1967 32.6622 50.369 32.5228 50.501C32.3908 50.633 32.2075 50.699 31.9728 50.699ZM36.2224 57.86C35.7384 57.86 35.302 57.7757 34.9134 57.607C34.5247 57.4383 34.202 57.189 33.9454 56.859L34.7154 56.199C34.9354 56.4557 35.1737 56.6427 35.4304 56.76C35.6944 56.87 35.9914 56.925 36.3214 56.925C36.4534 56.925 36.5744 56.9103 36.6844 56.881C36.8017 56.8443 36.9007 56.793 36.9814 56.727C37.0694 56.661 37.1354 56.584 37.1794 56.496C37.2234 56.4007 37.2454 56.298 37.2454 56.188C37.2454 55.9973 37.1757 55.8433 37.0364 55.726C36.963 55.6747 36.8457 55.6197 36.6844 55.561C36.5304 55.495 36.3287 55.429 36.0794 55.363C35.654 55.253 35.3057 55.1283 35.0344 54.989C34.763 54.8497 34.554 54.692 34.4074 54.516C34.2974 54.3767 34.2167 54.2263 34.1654 54.065C34.114 53.8963 34.0884 53.713 34.0884 53.515C34.0884 53.273 34.1397 53.053 34.2424 52.855C34.3524 52.6497 34.499 52.4737 34.6824 52.327C34.873 52.173 35.093 52.0557 35.3424 51.975C35.599 51.8943 35.8704 51.854 36.1564 51.854C36.4277 51.854 36.6954 51.8907 36.9594 51.964C37.2307 52.0373 37.48 52.1437 37.7074 52.283C37.9347 52.4223 38.1254 52.5873 38.2794 52.778L37.6304 53.493C37.491 53.3537 37.337 53.2327 37.1684 53.13C37.007 53.02 36.842 52.9357 36.6734 52.877C36.5047 52.8183 36.3507 52.789 36.2114 52.789C36.0574 52.789 35.918 52.8037 35.7934 52.833C35.6687 52.8623 35.5624 52.9063 35.4744 52.965C35.3937 53.0237 35.3314 53.097 35.2874 53.185C35.2434 53.273 35.2214 53.372 35.2214 53.482C35.2287 53.5773 35.2507 53.669 35.2874 53.757C35.3314 53.8377 35.39 53.9073 35.4634 53.966C35.544 54.0247 35.665 54.087 35.8264 54.153C35.9877 54.219 36.193 54.2813 36.4424 54.34C36.809 54.4353 37.1097 54.5417 37.3444 54.659C37.5864 54.769 37.777 54.8973 37.9164 55.044C38.063 55.1833 38.1657 55.3447 38.2244 55.528C38.283 55.7113 38.3124 55.9167 38.3124 56.144C38.3124 56.474 38.217 56.771 38.0264 57.035C37.843 57.2917 37.5937 57.4933 37.2784 57.64C36.963 57.7867 36.611 57.86 36.2224 57.86ZM40.276 57.75V50.501H41.409V57.75H40.276ZM39.077 53.075V51.975H42.751V53.075H39.077ZM46.325 57.86C45.7603 57.86 45.2543 57.7317 44.807 57.475C44.367 57.211 44.0187 56.8553 43.762 56.408C43.5053 55.9533 43.377 55.4363 43.377 54.857C43.377 54.2777 43.5053 53.7643 43.762 53.317C44.0187 52.8623 44.367 52.5067 44.807 52.25C45.2543 51.986 45.7603 51.854 46.325 51.854C46.8823 51.854 47.381 51.986 47.821 52.25C48.2683 52.5067 48.6203 52.8623 48.877 53.317C49.1337 53.7643 49.262 54.2777 49.262 54.857C49.262 55.4363 49.1337 55.9533 48.877 56.408C48.6203 56.8553 48.2683 57.211 47.821 57.475C47.381 57.7317 46.8823 57.86 46.325 57.86ZM46.325 56.826C46.6697 56.826 46.9777 56.7417 47.249 56.573C47.5203 56.397 47.733 56.1623 47.887 55.869C48.041 55.5683 48.1143 55.231 48.107 54.857C48.1143 54.4757 48.041 54.1383 47.887 53.845C47.733 53.5443 47.5203 53.3097 47.249 53.141C46.9777 52.9723 46.6697 52.888 46.325 52.888C45.9803 52.888 45.6687 52.976 45.39 53.152C45.1187 53.3207 44.906 53.5553 44.752 53.856C44.598 54.1493 44.5247 54.483 44.532 54.857C44.5247 55.231 44.598 55.5683 44.752 55.869C44.906 56.1623 45.1187 56.397 45.39 56.573C45.6687 56.7417 45.9803 56.826 46.325 56.826ZM50.4966 57.75V51.975H51.6406V53.79L51.5306 53.35C51.6113 53.0713 51.7469 52.8183 51.9376 52.591C52.1356 52.3637 52.3593 52.184 52.6086 52.052C52.8653 51.92 53.1293 51.854 53.4006 51.854C53.5253 51.854 53.6426 51.865 53.7526 51.887C53.8699 51.909 53.9616 51.9347 54.0276 51.964L53.7306 53.196C53.6426 53.1593 53.5436 53.13 53.4336 53.108C53.3309 53.0787 53.2283 53.064 53.1256 53.064C52.9276 53.064 52.7369 53.1043 52.5536 53.185C52.3776 53.2583 52.2199 53.3647 52.0806 53.504C51.9486 53.636 51.8423 53.7937 51.7616 53.977C51.6809 54.153 51.6406 54.3473 51.6406 54.56V57.75H50.4966ZM55.1201 57.75V51.975H56.2531V57.75H55.1201ZM55.6701 50.699C55.4281 50.699 55.2411 50.6367 55.1091 50.512C54.9771 50.3873 54.9111 50.2113 54.9111 49.984C54.9111 49.7713 54.9771 49.599 55.1091 49.467C55.2484 49.335 55.4354 49.269 55.6701 49.269C55.9121 49.269 56.0991 49.3313 56.2311 49.456C56.3631 49.5807 56.4291 49.7567 56.4291 49.984C56.4291 50.1967 56.3594 50.369 56.2201 50.501C56.0881 50.633 55.9048 50.699 55.6701 50.699ZM60.2166 57.86C59.74 57.86 59.3036 57.728 58.9076 57.464C58.519 57.2 58.2073 56.8407 57.9726 56.386C57.738 55.9313 57.6206 55.418 57.6206 54.846C57.6206 54.2667 57.738 53.7533 57.9726 53.306C58.2146 52.8513 58.5373 52.4957 58.9406 52.239C59.3513 51.9823 59.8096 51.854 60.3156 51.854C60.6163 51.854 60.8913 51.898 61.1406 51.986C61.39 52.074 61.6063 52.1987 61.7896 52.36C61.9803 52.514 62.1343 52.6937 62.2516 52.899C62.3763 53.1043 62.4533 53.3243 62.4826 53.559L62.2296 53.471V51.975H63.3736V57.75H62.2296V56.375L62.4936 56.298C62.4496 56.496 62.358 56.6903 62.2186 56.881C62.0866 57.0643 61.9143 57.2293 61.7016 57.376C61.4963 57.5227 61.2653 57.64 61.0086 57.728C60.7593 57.816 60.4953 57.86 60.2166 57.86ZM60.5136 56.815C60.8583 56.815 61.1626 56.7307 61.4266 56.562C61.6906 56.3933 61.896 56.1623 62.0426 55.869C62.1966 55.5683 62.2736 55.2273 62.2736 54.846C62.2736 54.472 62.1966 54.1383 62.0426 53.845C61.896 53.5517 61.6906 53.3207 61.4266 53.152C61.1626 52.9833 60.8583 52.899 60.5136 52.899C60.1763 52.899 59.8756 52.9833 59.6116 53.152C59.355 53.3207 59.1496 53.5517 58.9956 53.845C58.849 54.1383 58.7756 54.472 58.7756 54.846C58.7756 55.2273 58.849 55.5683 58.9956 55.869C59.1496 56.1623 59.355 56.3933 59.6116 56.562C59.8756 56.7307 60.1763 56.815 60.5136 56.815ZM64.9776 57.75V49.61H66.1106V57.75H64.9776Z" fill="white"/>
<path d="M44.5 48.125C39.2292 48.125 34.6363 46.3776 30.7214 42.8828C26.8064 39.388 24.5625 35.0243 23.9896 29.7917H28.6875C29.2222 33.7639 30.9887 37.0486 33.987 39.6458C36.9852 42.2431 40.4896 43.5417 44.5 43.5417C48.9688 43.5417 52.7596 41.9852 55.8724 38.8724C58.9852 35.7596 60.5417 31.9688 60.5417 27.5C60.5417 23.0312 58.9852 19.2405 55.8724 16.1276C52.7596 13.0148 48.9688 11.4583 44.5 11.4583C41.8646 11.4583 39.401 12.0694 37.1094 13.2917C34.8177 14.5139 32.8889 16.1944 31.3229 18.3333H37.625V22.9167H23.875V9.16667H28.4583V14.5521C30.4062 12.1076 32.7839 10.217 35.5911 8.88021C38.3984 7.5434 41.3681 6.875 44.5 6.875C47.3646 6.875 50.0477 7.41927 52.5495 8.50781C55.0512 9.59635 57.2283 11.0668 59.0807 12.9193C60.9332 14.7717 62.4036 16.9488 63.4922 19.4505C64.5807 21.9523 65.125 24.6354 65.125 27.5C65.125 30.3646 64.5807 33.0477 63.4922 35.5495C62.4036 38.0512 60.9332 40.2283 59.0807 42.0807C57.2283 43.9332 55.0512 45.4036 52.5495 46.4922C50.0477 47.5807 47.3646 48.125 44.5 48.125ZM50.9167 37.125L42.2083 28.4167V16.0417H46.7917V26.5833L54.125 33.9167L50.9167 37.125Z" fill="white"/>
</svg>
