<svg width="93" height="63" viewBox="0 0 93 63" fill="none" xmlns="http://www.w3.org/2000/svg">
<path d="M28.4065 41.7778C27.1947 41.7778 26.1573 41.2664 25.2944 40.2438C24.4315 39.2211 24 37.9917 24 36.5556V5.22222C24 3.78611 24.4315 2.55671 25.2944 1.53403C26.1573 0.511343 27.1947 0 28.4065 0H63.6582C64.87 0 65.9073 0.511343 66.7703 1.53403C67.6332 2.55671 68.0647 3.78611 68.0647 5.22222V18.2778H63.6582V5.22222H48.2356V18.2778H43.8291V5.22222H28.4065V36.5556H43.8291V41.7778H28.4065ZM53.7436 47C52.8256 47 52.0453 46.6192 51.4027 45.8576C50.7601 45.0961 50.4388 44.1713 50.4388 43.0833V35.9028H54.8453V41.7778H63.6582V35.9028H68.0647V43.0833C68.0647 44.1713 67.7434 45.0961 67.1007 45.8576C66.4581 46.6192 65.6778 47 64.7598 47H53.7436ZM51.7057 36.5556C50.6775 36.5556 49.8513 36.0769 49.227 35.1194C48.6028 34.162 48.3824 33.0741 48.566 31.8556L49.4473 26.6333C49.6309 25.7194 50.0165 24.9688 50.604 24.3813C51.1916 23.7938 51.8709 23.5 52.642 23.5H65.8614C66.6326 23.5 67.3119 23.7938 67.8994 24.3813C68.4869 24.9688 68.8725 25.7194 69.0561 26.6333L69.9374 31.8556C70.121 33.0741 69.9007 34.162 69.2764 35.1194C68.6522 36.0769 67.826 36.5556 66.7978 36.5556H51.7057ZM53.1378 31.3333H65.3657L64.9251 28.7222H53.5784L53.1378 31.3333ZM30.6097 31.3333H41.6259V26.1111H30.6097V31.3333ZM30.6097 23.5H41.6259V18.2778H30.6097V23.5ZM30.6097 15.6667H41.6259V10.4444H30.6097V15.6667ZM50.4388 15.6667V10.4444H61.455V15.6667H50.4388Z" fill="white"/>
<path d="M19.1314 58V56.9H20.3744V51.4H19.1314V50.3H22.8054V51.4H21.5624V56.9H22.8054V58H19.1314ZM24.3843 58V52.225H25.5173V53.413L25.3193 53.545C25.3926 53.2883 25.5356 53.0537 25.7483 52.841C25.961 52.621 26.214 52.445 26.5073 52.313C26.8006 52.1737 27.1013 52.104 27.4093 52.104C27.8493 52.104 28.216 52.192 28.5093 52.368C28.8026 52.5367 29.0226 52.797 29.1693 53.149C29.316 53.501 29.3893 53.9447 29.3893 54.48V58H28.2563V54.557C28.2563 54.227 28.2123 53.9557 28.1243 53.743C28.0363 53.523 27.9006 53.3653 27.7173 53.27C27.534 53.1673 27.3066 53.1233 27.0353 53.138C26.8153 53.138 26.6136 53.1747 26.4303 53.248C26.247 53.314 26.0856 53.4093 25.9463 53.534C25.8143 53.6587 25.708 53.8053 25.6273 53.974C25.554 54.1353 25.5173 54.3113 25.5173 54.502V58H24.9563C24.861 58 24.7656 58 24.6703 58C24.575 58 24.4796 58 24.3843 58ZM32.8183 58L30.3763 52.225H31.5973L33.3573 56.548L33.1483 56.647L35.0293 52.225H36.1953L33.6323 58H32.8183ZM39.7658 58.11C39.1718 58.11 38.6438 57.9853 38.1818 57.736C37.7271 57.4793 37.3678 57.131 37.1038 56.691C36.8471 56.251 36.7188 55.745 36.7188 55.173C36.7188 54.7183 36.7921 54.304 36.9388 53.93C37.0855 53.556 37.2871 53.2333 37.5438 52.962C37.8078 52.6833 38.1195 52.4707 38.4788 52.324C38.8455 52.17 39.2415 52.093 39.6668 52.093C40.0408 52.093 40.3891 52.1663 40.7118 52.313C41.0345 52.4523 41.3131 52.6467 41.5478 52.896C41.7898 53.1453 41.9731 53.4423 42.0978 53.787C42.2298 54.1243 42.2921 54.4947 42.2848 54.898L42.2738 55.382H37.5548L37.3018 54.48H41.2948L41.1298 54.667V54.403C41.1078 54.161 41.0271 53.9447 40.8878 53.754C40.7485 53.5633 40.5725 53.413 40.3598 53.303C40.1471 53.193 39.9161 53.138 39.6668 53.138C39.2708 53.138 38.9371 53.215 38.6658 53.369C38.3945 53.5157 38.1891 53.7357 38.0498 54.029C37.9105 54.315 37.8408 54.6707 37.8408 55.096C37.8408 55.4993 37.9251 55.8513 38.0938 56.152C38.2625 56.4453 38.5008 56.6727 38.8088 56.834C39.1168 56.9953 39.4725 57.076 39.8758 57.076C40.1618 57.076 40.4258 57.0283 40.6678 56.933C40.9171 56.8377 41.1848 56.6653 41.4708 56.416L42.0428 57.219C41.8668 57.395 41.6505 57.549 41.3938 57.681C41.1445 57.813 40.8768 57.9193 40.5908 58C40.3121 58.0733 40.0371 58.11 39.7658 58.11ZM43.5161 58V52.225H44.6491V53.413L44.4511 53.545C44.5245 53.2883 44.6675 53.0537 44.8801 52.841C45.0928 52.621 45.3458 52.445 45.6391 52.313C45.9325 52.1737 46.2331 52.104 46.5411 52.104C46.9811 52.104 47.3478 52.192 47.6411 52.368C47.9345 52.5367 48.1545 52.797 48.3011 53.149C48.4478 53.501 48.5211 53.9447 48.5211 54.48V58H47.3881V54.557C47.3881 54.227 47.3441 53.9557 47.2561 53.743C47.1681 53.523 47.0325 53.3653 46.8491 53.27C46.6658 53.1673 46.4385 53.1233 46.1671 53.138C45.9471 53.138 45.7455 53.1747 45.5621 53.248C45.3788 53.314 45.2175 53.4093 45.0781 53.534C44.9461 53.6587 44.8398 53.8053 44.7591 53.974C44.6858 54.1353 44.6491 54.3113 44.6491 54.502V58H44.0881C43.9928 58 43.8975 58 43.8021 58C43.7068 58 43.6115 58 43.5161 58ZM50.7731 58V50.751H51.9061V58H50.7731ZM49.5741 53.325V52.225H53.2481V53.325H49.5741ZM56.4481 58.11C55.9714 58.11 55.5351 57.978 55.1391 57.714C54.7504 57.45 54.4387 57.0907 54.2041 56.636C53.9694 56.1813 53.8521 55.668 53.8521 55.096C53.8521 54.5167 53.9694 54.0033 54.2041 53.556C54.4461 53.1013 54.7687 52.7457 55.1721 52.489C55.5827 52.2323 56.0411 52.104 56.5471 52.104C56.8477 52.104 57.1227 52.148 57.3721 52.236C57.6214 52.324 57.8377 52.4487 58.0211 52.61C58.2117 52.764 58.3657 52.9437 58.4831 53.149C58.6077 53.3543 58.6847 53.5743 58.7141 53.809L58.4611 53.721V52.225H59.6051V58H58.4611V56.625L58.7251 56.548C58.6811 56.746 58.5894 56.9403 58.4501 57.131C58.3181 57.3143 58.1457 57.4793 57.9331 57.626C57.7277 57.7727 57.4967 57.89 57.2401 57.978C56.9907 58.066 56.7267 58.11 56.4481 58.11ZM56.7451 57.065C57.0897 57.065 57.3941 56.9807 57.6581 56.812C57.9221 56.6433 58.1274 56.4123 58.2741 56.119C58.4281 55.8183 58.5051 55.4773 58.5051 55.096C58.5051 54.722 58.4281 54.3883 58.2741 54.095C58.1274 53.8017 57.9221 53.5707 57.6581 53.402C57.3941 53.2333 57.0897 53.149 56.7451 53.149C56.4077 53.149 56.1071 53.2333 55.8431 53.402C55.5864 53.5707 55.3811 53.8017 55.2271 54.095C55.0804 54.3883 55.0071 54.722 55.0071 55.096C55.0071 55.4773 55.0804 55.8183 55.2271 56.119C55.3811 56.4123 55.5864 56.6433 55.8431 56.812C56.1071 56.9807 56.4077 57.065 56.7451 57.065ZM61.187 58V52.225H62.331V54.04L62.221 53.6C62.3017 53.3213 62.4374 53.0683 62.628 52.841C62.826 52.6137 63.0497 52.434 63.299 52.302C63.5557 52.17 63.8197 52.104 64.091 52.104C64.2157 52.104 64.333 52.115 64.443 52.137C64.5604 52.159 64.652 52.1847 64.718 52.214L64.421 53.446C64.333 53.4093 64.234 53.38 64.124 53.358C64.0214 53.3287 63.9187 53.314 63.816 53.314C63.618 53.314 63.4274 53.3543 63.244 53.435C63.068 53.5083 62.9104 53.6147 62.771 53.754C62.639 53.886 62.5327 54.0437 62.452 54.227C62.3714 54.403 62.331 54.5973 62.331 54.81V58H61.187ZM65.8105 58V52.225H66.9435V58H65.8105ZM66.3605 50.949C66.1185 50.949 65.9315 50.8867 65.7995 50.762C65.6675 50.6373 65.6015 50.4613 65.6015 50.234C65.6015 50.0213 65.6675 49.849 65.7995 49.717C65.9389 49.585 66.1259 49.519 66.3605 49.519C66.6025 49.519 66.7895 49.5813 66.9215 49.706C67.0535 49.8307 67.1195 50.0067 67.1195 50.234C67.1195 50.4467 67.0499 50.619 66.9105 50.751C66.7785 50.883 66.5952 50.949 66.3605 50.949ZM71.2811 58.11C70.7164 58.11 70.2104 57.9817 69.7631 57.725C69.3231 57.461 68.9747 57.1053 68.7181 56.658C68.4614 56.2033 68.3331 55.6863 68.3331 55.107C68.3331 54.5277 68.4614 54.0143 68.7181 53.567C68.9747 53.1123 69.3231 52.7567 69.7631 52.5C70.2104 52.236 70.7164 52.104 71.2811 52.104C71.8384 52.104 72.3371 52.236 72.7771 52.5C73.2244 52.7567 73.5764 53.1123 73.8331 53.567C74.0897 54.0143 74.2181 54.5277 74.2181 55.107C74.2181 55.6863 74.0897 56.2033 73.8331 56.658C73.5764 57.1053 73.2244 57.461 72.7771 57.725C72.3371 57.9817 71.8384 58.11 71.2811 58.11ZM71.2811 57.076C71.6257 57.076 71.9337 56.9917 72.2051 56.823C72.4764 56.647 72.6891 56.4123 72.8431 56.119C72.9971 55.8183 73.0704 55.481 73.0631 55.107C73.0704 54.7257 72.9971 54.3883 72.8431 54.095C72.6891 53.7943 72.4764 53.5597 72.2051 53.391C71.9337 53.2223 71.6257 53.138 71.2811 53.138C70.9364 53.138 70.6247 53.226 70.3461 53.402C70.0747 53.5707 69.8621 53.8053 69.7081 54.106C69.5541 54.3993 69.4807 54.733 69.4881 55.107C69.4807 55.481 69.5541 55.8183 69.7081 56.119C69.8621 56.4123 70.0747 56.647 70.3461 56.823C70.6247 56.9917 70.9364 57.076 71.2811 57.076Z" fill="white"/>
</svg>
