<svg width="91" height="67" viewBox="0 0 91 67" fill="none" xmlns="http://www.w3.org/2000/svg">
<path d="M24.6064 50.75V43.5H32.098L25.9355 23.3209C24.848 22.7167 23.9519 21.8306 23.247 20.6625C22.5421 19.4945 22.1897 18.2458 22.1897 16.9167C22.1897 14.9028 22.8946 13.191 24.3043 11.7813C25.714 10.3715 27.4258 9.66668 29.4397 9.66668C31.0105 9.66668 32.4102 10.1198 33.6387 11.0261C34.8671 11.9323 35.723 13.0903 36.2064 14.5H43.9397V12.0833C43.9397 11.3986 44.1713 10.8247 44.6345 10.3615C45.0977 9.89828 45.6716 9.66668 46.3564 9.66668C46.7189 9.66668 47.0713 9.74724 47.4137 9.90835C47.756 10.0695 48.048 10.3111 48.2897 10.6333L52.398 6.76668C52.7605 6.40418 53.1935 6.17258 53.697 6.07189C54.2005 5.9712 54.6939 6.04168 55.1772 6.28335L64.6022 10.6333C65.0855 10.875 65.4178 11.2274 65.5991 11.6906C65.7803 12.1538 65.7703 12.607 65.5689 13.05C65.3272 13.5333 64.9748 13.8455 64.5116 13.9865C64.0484 14.1274 63.5953 14.0972 63.1522 13.8958L54.4522 9.90835L48.773 15.225V18.6083L54.4522 23.8042L63.1522 19.8167C63.5953 19.6153 64.0584 19.5952 64.5418 19.7563C65.0251 19.9174 65.3675 20.2195 65.5689 20.6625C65.8105 21.1458 65.8307 21.609 65.6293 22.0521C65.4279 22.4952 65.0855 22.8375 64.6022 23.0792L55.1772 27.55C54.6939 27.7917 54.2005 27.8622 53.697 27.7615C53.1935 27.6608 52.7605 27.4292 52.398 27.0667L48.2897 23.2C48.048 23.4417 47.756 23.6632 47.4137 23.8646C47.0713 24.066 46.7189 24.1667 46.3564 24.1667C45.6716 24.1667 45.0977 23.9351 44.6345 23.4719C44.1713 23.0087 43.9397 22.4347 43.9397 21.75V19.3333H36.2064C36.0855 19.6556 35.9546 19.9577 35.8137 20.2396C35.6727 20.5215 35.4814 20.8236 35.2397 21.1458L47.323 43.5H56.023V50.75H24.6064ZM29.4397 19.3333C30.1244 19.3333 30.6984 19.1018 31.1616 18.6386C31.6248 18.1754 31.8564 17.6014 31.8564 16.9167C31.8564 16.232 31.6248 15.658 31.1616 15.1948C30.6984 14.7316 30.1244 14.5 29.4397 14.5C28.755 14.5 28.181 14.7316 27.7178 15.1948C27.2546 15.658 27.023 16.232 27.023 16.9167C27.023 17.6014 27.2546 18.1754 27.7178 18.6386C28.181 19.1018 28.755 19.3333 29.4397 19.3333ZM37.0522 43.5H41.7647L31.373 24.1667H31.1314L37.0522 43.5Z" fill="white"/>
<path d="M36.1588 59.668L36.0928 58.337L40.1298 54.3H41.6918L36.1588 59.668ZM35.1688 62V54.3H36.3568V62H35.1688ZM40.2728 62L37.3248 58.062L38.2048 57.303L41.7578 62H40.2728ZM43.1265 62V56.225H44.2595V62H43.1265ZM43.6765 54.949C43.4345 54.949 43.2475 54.8867 43.1155 54.762C42.9835 54.6373 42.9175 54.4613 42.9175 54.234C42.9175 54.0213 42.9835 53.849 43.1155 53.717C43.2548 53.585 43.4418 53.519 43.6765 53.519C43.9185 53.519 44.1055 53.5813 44.2375 53.706C44.3695 53.8307 44.4355 54.0067 44.4355 54.234C44.4355 54.4467 44.3658 54.619 44.2265 54.751C44.0945 54.883 43.9111 54.949 43.6765 54.949ZM46.716 62V54.751H47.849V62H46.716ZM45.517 57.325V56.225H49.191V57.325H45.517ZM52.3625 62.11C51.8785 62.11 51.4422 62.0257 51.0535 61.857C50.6648 61.6883 50.3422 61.439 50.0855 61.109L50.8555 60.449C51.0755 60.7057 51.3138 60.8927 51.5705 61.01C51.8345 61.12 52.1315 61.175 52.4615 61.175C52.5935 61.175 52.7145 61.1603 52.8245 61.131C52.9418 61.0943 53.0408 61.043 53.1215 60.977C53.2095 60.911 53.2755 60.834 53.3195 60.746C53.3635 60.6507 53.3855 60.548 53.3855 60.438C53.3855 60.2473 53.3158 60.0933 53.1765 59.976C53.1032 59.9247 52.9858 59.8697 52.8245 59.811C52.6705 59.745 52.4688 59.679 52.2195 59.613C51.7942 59.503 51.4458 59.3783 51.1745 59.239C50.9032 59.0997 50.6942 58.942 50.5475 58.766C50.4375 58.6267 50.3568 58.4763 50.3055 58.315C50.2542 58.1463 50.2285 57.963 50.2285 57.765C50.2285 57.523 50.2798 57.303 50.3825 57.105C50.4925 56.8997 50.6392 56.7237 50.8225 56.577C51.0132 56.423 51.2332 56.3057 51.4825 56.225C51.7392 56.1443 52.0105 56.104 52.2965 56.104C52.5678 56.104 52.8355 56.1407 53.0995 56.214C53.3708 56.2873 53.6202 56.3937 53.8475 56.533C54.0748 56.6723 54.2655 56.8373 54.4195 57.028L53.7705 57.743C53.6312 57.6037 53.4772 57.4827 53.3085 57.38C53.1472 57.27 52.9822 57.1857 52.8135 57.127C52.6448 57.0683 52.4908 57.039 52.3515 57.039C52.1975 57.039 52.0582 57.0537 51.9335 57.083C51.8088 57.1123 51.7025 57.1563 51.6145 57.215C51.5338 57.2737 51.4715 57.347 51.4275 57.435C51.3835 57.523 51.3615 57.622 51.3615 57.732C51.3688 57.8273 51.3908 57.919 51.4275 58.007C51.4715 58.0877 51.5302 58.1573 51.6035 58.216C51.6842 58.2747 51.8052 58.337 51.9665 58.403C52.1278 58.469 52.3332 58.5313 52.5825 58.59C52.9492 58.6853 53.2498 58.7917 53.4845 58.909C53.7265 59.019 53.9172 59.1473 54.0565 59.294C54.2032 59.4333 54.3058 59.5947 54.3645 59.778C54.4232 59.9613 54.4525 60.1667 54.4525 60.394C54.4525 60.724 54.3572 61.021 54.1665 61.285C53.9832 61.5417 53.7338 61.7433 53.4185 61.89C53.1032 62.0367 52.7512 62.11 52.3625 62.11Z" fill="white"/>
</svg>
