<svg width="40" height="35" viewBox="0 0 40 35" fill="none" xmlns="http://www.w3.org/2000/svg">
<path d="M13.3333 32.8125V28.4375H40V32.8125H13.3333ZM13.3333 19.6875V15.3125H40V19.6875H13.3333ZM13.3333 6.5625V2.1875H40V6.5625H13.3333ZM4.44444 35C3.22222 35 2.17593 34.5716 1.30556 33.7148C0.435185 32.8581 0 31.8281 0 30.625C0 29.4219 0.435185 28.3919 1.30556 27.5352C2.17593 26.6784 3.22222 26.25 4.44444 26.25C5.66667 26.25 6.71296 26.6784 7.58333 27.5352C8.4537 28.3919 8.88889 29.4219 8.88889 30.625C8.88889 31.8281 8.4537 32.8581 7.58333 33.7148C6.71296 34.5716 5.66667 35 4.44444 35ZM4.44444 21.875C3.22222 21.875 2.17593 21.4466 1.30556 20.5898C0.435185 19.7331 0 18.7031 0 17.5C0 16.2969 0.435185 15.2669 1.30556 14.4102C2.17593 13.5534 3.22222 13.125 4.44444 13.125C5.66667 13.125 6.71296 13.5534 7.58333 14.4102C8.4537 15.2669 8.88889 16.2969 8.88889 17.5C8.88889 18.7031 8.4537 19.7331 7.58333 20.5898C6.71296 21.4466 5.66667 21.875 4.44444 21.875ZM4.44444 8.75C3.22222 8.75 2.17593 8.32161 1.30556 7.46484C0.435185 6.60807 0 5.57812 0 4.375C0 3.17188 0.435185 2.14193 1.30556 1.28516C2.17593 0.428385 3.22222 0 4.44444 0C5.66667 0 6.71296 0.428385 7.58333 1.28516C8.4537 2.14193 8.88889 3.17188 8.88889 4.375C8.88889 5.57812 8.4537 6.60807 7.58333 7.46484C6.71296 8.32161 5.66667 8.75 4.44444 8.75Z" fill="black"/>
</svg>
