<svg width="93" height="66" viewBox="0 0 93 66" fill="none" xmlns="http://www.w3.org/2000/svg">
<path d="M32.7914 61V53.3H35.9264C36.3444 53.3 36.722 53.4063 37.0594 53.619C37.404 53.8243 37.679 54.1067 37.8844 54.466C38.0897 54.8253 38.1924 55.225 38.1924 55.665C38.1924 56.105 38.0897 56.5047 37.8844 56.864C37.679 57.2233 37.404 57.513 37.0594 57.733C36.722 57.9457 36.3444 58.052 35.9264 58.052H33.9794V61H32.7914ZM33.9794 56.908H35.9044C36.1024 56.908 36.282 56.853 36.4434 56.743C36.6047 56.6257 36.733 56.4753 36.8284 56.292C36.931 56.1013 36.9824 55.8923 36.9824 55.665C36.9824 55.4377 36.931 55.2323 36.8284 55.049C36.733 54.8657 36.6047 54.719 36.4434 54.609C36.282 54.499 36.1024 54.444 35.9044 54.444H33.9794V56.908ZM41.5916 61.11C41.115 61.11 40.6786 60.978 40.2826 60.714C39.894 60.45 39.5823 60.0907 39.3476 59.636C39.113 59.1813 38.9956 58.668 38.9956 58.096C38.9956 57.5167 39.113 57.0033 39.3476 56.556C39.5896 56.1013 39.9123 55.7457 40.3156 55.489C40.7263 55.2323 41.1846 55.104 41.6906 55.104C41.9913 55.104 42.2663 55.148 42.5156 55.236C42.765 55.324 42.9813 55.4487 43.1646 55.61C43.3553 55.764 43.5093 55.9437 43.6266 56.149C43.7513 56.3543 43.8283 56.5743 43.8576 56.809L43.6046 56.721V55.225H44.7486V61H43.6046V59.625L43.8686 59.548C43.8246 59.746 43.733 59.9403 43.5936 60.131C43.4616 60.3143 43.2893 60.4793 43.0766 60.626C42.8713 60.7727 42.6403 60.89 42.3836 60.978C42.1343 61.066 41.8703 61.11 41.5916 61.11ZM41.8886 60.065C42.2333 60.065 42.5376 59.9807 42.8016 59.812C43.0656 59.6433 43.271 59.4123 43.4176 59.119C43.5716 58.8183 43.6486 58.4773 43.6486 58.096C43.6486 57.722 43.5716 57.3883 43.4176 57.095C43.271 56.8017 43.0656 56.5707 42.8016 56.402C42.5376 56.2333 42.2333 56.149 41.8886 56.149C41.5513 56.149 41.2506 56.2333 40.9866 56.402C40.73 56.5707 40.5246 56.8017 40.3706 57.095C40.224 57.3883 40.1506 57.722 40.1506 58.096C40.1506 58.4773 40.224 58.8183 40.3706 59.119C40.5246 59.4123 40.73 59.6433 40.9866 59.812C41.2506 59.9807 41.5513 60.065 41.8886 60.065ZM46.3306 61V55.225H47.4636V56.413L47.2656 56.545C47.3389 56.2883 47.4819 56.0537 47.6946 55.841C47.9072 55.621 48.1602 55.445 48.4536 55.313C48.7469 55.1737 49.0476 55.104 49.3556 55.104C49.7956 55.104 50.1622 55.192 50.4556 55.368C50.7489 55.5367 50.9689 55.797 51.1156 56.149C51.2622 56.501 51.3356 56.9447 51.3356 57.48V61H50.2026V57.557C50.2026 57.227 50.1586 56.9557 50.0706 56.743C49.9826 56.523 49.8469 56.3653 49.6636 56.27C49.4802 56.1673 49.2529 56.1233 48.9816 56.138C48.7616 56.138 48.5599 56.1747 48.3766 56.248C48.1932 56.314 48.0319 56.4093 47.8926 56.534C47.7606 56.6587 47.6542 56.8053 47.5736 56.974C47.5002 57.1353 47.4636 57.3113 47.4636 57.502V61H46.9026C46.8072 61 46.7119 61 46.6166 61C46.5212 61 46.4259 61 46.3306 61ZM55.5676 61.11C54.9736 61.11 54.4456 60.9853 53.9836 60.736C53.5289 60.4793 53.1696 60.131 52.9056 59.691C52.6489 59.251 52.5206 58.745 52.5206 58.173C52.5206 57.7183 52.5939 57.304 52.7406 56.93C52.8872 56.556 53.0889 56.2333 53.3456 55.962C53.6096 55.6833 53.9212 55.4707 54.2806 55.324C54.6472 55.17 55.0432 55.093 55.4686 55.093C55.8426 55.093 56.1909 55.1663 56.5136 55.313C56.8362 55.4523 57.1149 55.6467 57.3496 55.896C57.5916 56.1453 57.7749 56.4423 57.8996 56.787C58.0316 57.1243 58.0939 57.4947 58.0866 57.898L58.0756 58.382H53.3566L53.1036 57.48H57.0966L56.9316 57.667V57.403C56.9096 57.161 56.8289 56.9447 56.6896 56.754C56.5502 56.5633 56.3742 56.413 56.1616 56.303C55.9489 56.193 55.7179 56.138 55.4686 56.138C55.0726 56.138 54.7389 56.215 54.4676 56.369C54.1962 56.5157 53.9909 56.7357 53.8516 57.029C53.7122 57.315 53.6426 57.6707 53.6426 58.096C53.6426 58.4993 53.7269 58.8513 53.8956 59.152C54.0642 59.4453 54.3026 59.6727 54.6106 59.834C54.9186 59.9953 55.2742 60.076 55.6776 60.076C55.9636 60.076 56.2276 60.0283 56.4696 59.933C56.7189 59.8377 56.9866 59.6653 57.2726 59.416L57.8446 60.219C57.6686 60.395 57.4522 60.549 57.1956 60.681C56.9462 60.813 56.6786 60.9193 56.3926 61C56.1139 61.0733 55.8389 61.11 55.5676 61.11ZM59.3399 61V52.86H60.4729V61H59.3399Z" fill="white"/>
<path d="M28.8125 0C27.1549 0 25.5652 0.65848 24.3931 1.83058C23.221 3.00269 22.5625 4.5924 22.5625 6.25V43.75C22.5625 45.4076 23.221 46.9973 24.3931 48.1694C25.5652 49.3415 27.1549 50 28.8125 50H63.1875C64.8451 50 66.4348 49.3415 67.6069 48.1694C68.779 46.9973 69.4375 45.4076 69.4375 43.75V6.25C69.4375 4.5924 68.779 3.00269 67.6069 1.83058C66.4348 0.65848 64.8451 0 63.1875 0L28.8125 0ZM44.4375 6.25H47.5625C48.3913 6.25 49.1862 6.57924 49.7722 7.16529C50.3583 7.75134 50.6875 8.5462 50.6875 9.375V18.75C50.6875 19.5788 50.3583 20.3737 49.7722 20.9597C49.1862 21.5458 48.3913 21.875 47.5625 21.875H44.4375C43.6087 21.875 42.8138 21.5458 42.2278 20.9597C41.6417 20.3737 41.3125 19.5788 41.3125 18.75V9.375C41.3125 8.5462 41.6417 7.75134 42.2278 7.16529C42.8138 6.57924 43.6087 6.25 44.4375 6.25ZM28.8125 9.375C28.8125 8.5462 29.1417 7.75134 29.7278 7.16529C30.3138 6.57924 31.1087 6.25 31.9375 6.25H35.0625C35.8913 6.25 36.6862 6.57924 37.2722 7.16529C37.8583 7.75134 38.1875 8.5462 38.1875 9.375V31.25C38.1875 32.0788 37.8583 32.8737 37.2722 33.4597C36.6862 34.0458 35.8913 34.375 35.0625 34.375H31.9375C31.1087 34.375 30.3138 34.0458 29.7278 33.4597C29.1417 32.8737 28.8125 32.0788 28.8125 31.25V9.375ZM56.9375 6.25H60.0625C60.8913 6.25 61.6862 6.57924 62.2722 7.16529C62.8583 7.75134 63.1875 8.5462 63.1875 9.375V40.625C63.1875 41.4538 62.8583 42.2487 62.2722 42.8347C61.6862 43.4208 60.8913 43.75 60.0625 43.75H56.9375C56.1087 43.75 55.3138 43.4208 54.7278 42.8347C54.1417 42.2487 53.8125 41.4538 53.8125 40.625V9.375C53.8125 8.5462 54.1417 7.75134 54.7278 7.16529C55.3138 6.57924 56.1087 6.25 56.9375 6.25Z" fill="white"/>
</svg>
