<svg width="93" height="62" viewBox="0 0 93 62" fill="none" xmlns="http://www.w3.org/2000/svg">
<path d="M58.1579 47.0784C54.8816 47.0784 52.0888 45.9855 49.7796 43.7998C47.4704 41.614 46.3158 38.9705 46.3158 35.8693C46.3158 32.7681 47.4704 30.1246 49.7796 27.9388C52.0888 25.753 54.8816 24.6601 58.1579 24.6601C61.4342 24.6601 64.227 25.753 66.5362 27.9388C68.8454 30.1246 70 32.7681 70 35.8693C70 38.9705 68.8454 41.614 66.5362 43.7998C64.227 45.9855 61.4342 47.0784 58.1579 47.0784ZM62.125 41.1936L63.7829 39.6243L59.3421 35.4209V29.1438H56.9737V36.3176L62.125 41.1936ZM29.7368 44.8366C28.4342 44.8366 27.3191 44.3976 26.3914 43.5195C25.4638 42.6415 25 41.5859 25 40.3529V8.96732C25 7.73431 25.4638 6.67879 26.3914 5.80074C27.3191 4.92269 28.4342 4.48366 29.7368 4.48366H39.625C40.0592 3.17593 40.9079 2.10172 42.1711 1.26103C43.4342 0.420343 44.8158 0 46.3158 0C47.8947 0 49.3059 0.420343 50.5493 1.26103C51.7928 2.10172 52.6316 3.17593 53.0658 4.48366H62.8947C64.1974 4.48366 65.3125 4.92269 66.2401 5.80074C67.1678 6.67879 67.6316 7.73431 67.6316 8.96732V22.9788C66.9211 22.493 66.1711 22.082 65.3816 21.7458C64.5921 21.4095 63.7632 21.1106 62.8947 20.849V8.96732H58.1579V15.6928H34.4737V8.96732H29.7368V40.3529H42.2895C42.5658 41.1749 42.8816 41.9596 43.2368 42.7069C43.5921 43.4541 44.0263 44.1641 44.5395 44.8366H29.7368ZM46.3158 8.96732C46.9868 8.96732 47.5493 8.75248 48.0033 8.32279C48.4572 7.89311 48.6842 7.36068 48.6842 6.72549C48.6842 6.0903 48.4572 5.55787 48.0033 5.12819C47.5493 4.6985 46.9868 4.48366 46.3158 4.48366C45.6447 4.48366 45.0822 4.6985 44.6283 5.12819C44.1743 5.55787 43.9474 6.0903 43.9474 6.72549C43.9474 7.36068 44.1743 7.89311 44.6283 8.32279C45.0822 8.75248 45.6447 8.96732 46.3158 8.96732Z" fill="white"/>
<path d="M26.4051 56.75V49.05H29.5401C29.9581 49.05 30.3358 49.1563 30.6731 49.369C31.0178 49.5743 31.2928 49.8567 31.4981 50.216C31.7035 50.5753 31.8061 50.975 31.8061 51.415C31.8061 51.855 31.7035 52.2547 31.4981 52.614C31.2928 52.9733 31.0178 53.263 30.6731 53.483C30.3358 53.6957 29.9581 53.802 29.5401 53.802H27.5931V56.75H26.4051ZM27.5931 52.658H29.5181C29.7161 52.658 29.8958 52.603 30.0571 52.493C30.2185 52.3757 30.3468 52.2253 30.4421 52.042C30.5448 51.8513 30.5961 51.6423 30.5961 51.415C30.5961 51.1877 30.5448 50.9823 30.4421 50.799C30.3468 50.6157 30.2185 50.469 30.0571 50.359C29.8958 50.249 29.7161 50.194 29.5181 50.194H27.5931V52.658ZM35.6784 56.86C35.0844 56.86 34.5564 56.7353 34.0944 56.486C33.6397 56.2293 33.2804 55.881 33.0164 55.441C32.7597 55.001 32.6314 54.495 32.6314 53.923C32.6314 53.4683 32.7047 53.054 32.8514 52.68C32.9981 52.306 33.1997 51.9833 33.4564 51.712C33.7204 51.4333 34.0321 51.2207 34.3914 51.074C34.7581 50.92 35.1541 50.843 35.5794 50.843C35.9534 50.843 36.3017 50.9163 36.6244 51.063C36.9471 51.2023 37.2257 51.3967 37.4604 51.646C37.7024 51.8953 37.8857 52.1923 38.0104 52.537C38.1424 52.8743 38.2047 53.2447 38.1974 53.648L38.1864 54.132H33.4674L33.2144 53.23H37.2074L37.0424 53.417V53.153C37.0204 52.911 36.9397 52.6947 36.8004 52.504C36.6611 52.3133 36.4851 52.163 36.2724 52.053C36.0597 51.943 35.8287 51.888 35.5794 51.888C35.1834 51.888 34.8497 51.965 34.5784 52.119C34.3071 52.2657 34.1017 52.4857 33.9624 52.779C33.8231 53.065 33.7534 53.4207 33.7534 53.846C33.7534 54.2493 33.8377 54.6013 34.0064 54.902C34.1751 55.1953 34.4134 55.4227 34.7214 55.584C35.0294 55.7453 35.3851 55.826 35.7884 55.826C36.0744 55.826 36.3384 55.7783 36.5804 55.683C36.8297 55.5877 37.0974 55.4153 37.3834 55.166L37.9554 55.969C37.7794 56.145 37.5631 56.299 37.3064 56.431C37.0571 56.563 36.7894 56.6693 36.5034 56.75C36.2247 56.8233 35.9497 56.86 35.6784 56.86ZM41.8377 56.86C41.3097 56.86 40.8367 56.7317 40.4187 56.475C40.0081 56.211 39.6817 55.8553 39.4397 55.408C39.1977 54.9533 39.0767 54.4363 39.0767 53.857C39.0767 53.2777 39.1941 52.7643 39.4287 52.317C39.6707 51.8623 39.9971 51.5067 40.4077 51.25C40.8184 50.986 41.2841 50.854 41.8047 50.854C42.0907 50.854 42.3657 50.9017 42.6297 50.997C42.9011 51.085 43.1431 51.2097 43.3557 51.371C43.5684 51.525 43.7334 51.6973 43.8507 51.888C43.9754 52.0713 44.0377 52.2583 44.0377 52.449L43.7077 52.471V48.61H44.8407V56.75H43.7077V55.375H43.9277C43.9277 55.551 43.8691 55.727 43.7517 55.903C43.6344 56.0717 43.4767 56.2293 43.2787 56.376C43.0881 56.5227 42.8644 56.64 42.6077 56.728C42.3584 56.816 42.1017 56.86 41.8377 56.86ZM41.9917 55.881C42.3364 55.881 42.6407 55.793 42.9047 55.617C43.1687 55.441 43.3741 55.2027 43.5207 54.902C43.6747 54.594 43.7517 54.2457 43.7517 53.857C43.7517 53.4683 43.6747 53.1237 43.5207 52.823C43.3741 52.515 43.1687 52.273 42.9047 52.097C42.6407 51.921 42.3364 51.833 41.9917 51.833C41.6471 51.833 41.3427 51.921 41.0787 52.097C40.8147 52.273 40.6057 52.515 40.4517 52.823C40.3051 53.1237 40.2317 53.4683 40.2317 53.857C40.2317 54.2457 40.3051 54.594 40.4517 54.902C40.6057 55.2027 40.8147 55.441 41.0787 55.617C41.3427 55.793 41.6471 55.881 41.9917 55.881ZM46.5874 56.75V50.975H47.7204V56.75H46.5874ZM47.1374 49.699C46.8954 49.699 46.7084 49.6367 46.5764 49.512C46.4444 49.3873 46.3784 49.2113 46.3784 48.984C46.3784 48.7713 46.4444 48.599 46.5764 48.467C46.7157 48.335 46.9027 48.269 47.1374 48.269C47.3794 48.269 47.5664 48.3313 47.6984 48.456C47.8304 48.5807 47.8964 48.7567 47.8964 48.984C47.8964 49.1967 47.8267 49.369 47.6874 49.501C47.5554 49.633 47.3721 49.699 47.1374 49.699ZM51.8709 56.86C51.3429 56.86 50.8699 56.7317 50.4519 56.475C50.0413 56.211 49.7149 55.8553 49.4729 55.408C49.2309 54.9533 49.1099 54.4363 49.1099 53.857C49.1099 53.2777 49.2273 52.7643 49.4619 52.317C49.7039 51.8623 50.0303 51.5067 50.4409 51.25C50.8516 50.986 51.3173 50.854 51.8379 50.854C52.1239 50.854 52.3989 50.9017 52.6629 50.997C52.9343 51.085 53.1763 51.2097 53.3889 51.371C53.6016 51.525 53.7666 51.6973 53.8839 51.888C54.0086 52.0713 54.0709 52.2583 54.0709 52.449L53.7409 52.471V48.61H54.8739V56.75H53.7409V55.375H53.9609C53.9609 55.551 53.9023 55.727 53.7849 55.903C53.6676 56.0717 53.5099 56.2293 53.3119 56.376C53.1213 56.5227 52.8976 56.64 52.6409 56.728C52.3916 56.816 52.1349 56.86 51.8709 56.86ZM52.0249 55.881C52.3696 55.881 52.6739 55.793 52.9379 55.617C53.2019 55.441 53.4073 55.2027 53.5539 54.902C53.7079 54.594 53.7849 54.2457 53.7849 53.857C53.7849 53.4683 53.7079 53.1237 53.5539 52.823C53.4073 52.515 53.2019 52.273 52.9379 52.097C52.6739 51.921 52.3696 51.833 52.0249 51.833C51.6803 51.833 51.3759 51.921 51.1119 52.097C50.8479 52.273 50.6389 52.515 50.4849 52.823C50.3383 53.1237 50.2649 53.4683 50.2649 53.857C50.2649 54.2457 50.3383 54.594 50.4849 54.902C50.6389 55.2027 50.8479 55.441 51.1119 55.617C51.3759 55.793 51.6803 55.881 52.0249 55.881ZM59.0296 56.86C58.4649 56.86 57.9589 56.7317 57.5116 56.475C57.0716 56.211 56.7233 55.8553 56.4666 55.408C56.2099 54.9533 56.0816 54.4363 56.0816 53.857C56.0816 53.2777 56.2099 52.7643 56.4666 52.317C56.7233 51.8623 57.0716 51.5067 57.5116 51.25C57.9589 50.986 58.4649 50.854 59.0296 50.854C59.5869 50.854 60.0856 50.986 60.5256 51.25C60.9729 51.5067 61.3249 51.8623 61.5816 52.317C61.8383 52.7643 61.9666 53.2777 61.9666 53.857C61.9666 54.4363 61.8383 54.9533 61.5816 55.408C61.3249 55.8553 60.9729 56.211 60.5256 56.475C60.0856 56.7317 59.5869 56.86 59.0296 56.86ZM59.0296 55.826C59.3743 55.826 59.6823 55.7417 59.9536 55.573C60.2249 55.397 60.4376 55.1623 60.5916 54.869C60.7456 54.5683 60.8189 54.231 60.8116 53.857C60.8189 53.4757 60.7456 53.1383 60.5916 52.845C60.4376 52.5443 60.2249 52.3097 59.9536 52.141C59.6823 51.9723 59.3743 51.888 59.0296 51.888C58.6849 51.888 58.3733 51.976 58.0946 52.152C57.8233 52.3207 57.6106 52.5553 57.4566 52.856C57.3026 53.1493 57.2293 53.483 57.2366 53.857C57.2293 54.231 57.3026 54.5683 57.4566 54.869C57.6106 55.1623 57.8233 55.397 58.0946 55.573C58.3733 55.7417 58.6849 55.826 59.0296 55.826ZM65.1262 56.86C64.6422 56.86 64.2058 56.7757 63.8172 56.607C63.4285 56.4383 63.1058 56.189 62.8492 55.859L63.6192 55.199C63.8392 55.4557 64.0775 55.6427 64.3342 55.76C64.5982 55.87 64.8952 55.925 65.2252 55.925C65.3572 55.925 65.4782 55.9103 65.5882 55.881C65.7055 55.8443 65.8045 55.793 65.8852 55.727C65.9732 55.661 66.0392 55.584 66.0832 55.496C66.1272 55.4007 66.1492 55.298 66.1492 55.188C66.1492 54.9973 66.0795 54.8433 65.9402 54.726C65.8668 54.6747 65.7495 54.6197 65.5882 54.561C65.4342 54.495 65.2325 54.429 64.9832 54.363C64.5578 54.253 64.2095 54.1283 63.9382 53.989C63.6668 53.8497 63.4578 53.692 63.3112 53.516C63.2012 53.3767 63.1205 53.2263 63.0692 53.065C63.0178 52.8963 62.9922 52.713 62.9922 52.515C62.9922 52.273 63.0435 52.053 63.1462 51.855C63.2562 51.6497 63.4028 51.4737 63.5862 51.327C63.7768 51.173 63.9968 51.0557 64.2462 50.975C64.5028 50.8943 64.7742 50.854 65.0602 50.854C65.3315 50.854 65.5992 50.8907 65.8632 50.964C66.1345 51.0373 66.3838 51.1437 66.6112 51.283C66.8385 51.4223 67.0292 51.5873 67.1832 51.778L66.5342 52.493C66.3948 52.3537 66.2408 52.2327 66.0722 52.13C65.9108 52.02 65.7458 51.9357 65.5772 51.877C65.4085 51.8183 65.2545 51.789 65.1152 51.789C64.9612 51.789 64.8218 51.8037 64.6972 51.833C64.5725 51.8623 64.4662 51.9063 64.3782 51.965C64.2975 52.0237 64.2352 52.097 64.1912 52.185C64.1472 52.273 64.1252 52.372 64.1252 52.482C64.1325 52.5773 64.1545 52.669 64.1912 52.757C64.2352 52.8377 64.2938 52.9073 64.3672 52.966C64.4478 53.0247 64.5688 53.087 64.7302 53.153C64.8915 53.219 65.0968 53.2813 65.3462 53.34C65.7128 53.4353 66.0135 53.5417 66.2482 53.659C66.4902 53.769 66.6808 53.8973 66.8202 54.044C66.9668 54.1833 67.0695 54.3447 67.1282 54.528C67.1868 54.7113 67.2162 54.9167 67.2162 55.144C67.2162 55.474 67.1208 55.771 66.9302 56.035C66.7468 56.2917 66.4975 56.4933 66.1822 56.64C65.8668 56.7867 65.5148 56.86 65.1262 56.86Z" fill="white"/>
</svg>
