<svg width="90" height="72" viewBox="0 0 90 72" fill="none" xmlns="http://www.w3.org/2000/svg">
<path d="M23.3469 62L26.5989 53.6H27.9189L31.1469 62H29.7669L27.8469 56.936C27.8229 56.88 27.7749 56.744 27.7029 56.528C27.6389 56.312 27.5629 56.072 27.4749 55.808C27.3869 55.544 27.3069 55.304 27.2349 55.088C27.1629 54.864 27.1149 54.72 27.0909 54.656L27.3669 54.644C27.3189 54.78 27.2589 54.952 27.1869 55.16C27.1229 55.368 27.0509 55.588 26.9709 55.82C26.8989 56.052 26.8269 56.272 26.7549 56.48C26.6829 56.68 26.6229 56.848 26.5749 56.984L24.6669 62H23.3469ZM24.7869 59.912L25.2669 58.664H29.0829L29.6349 59.912H24.7869ZM31.5572 64.364L31.0892 63.416C31.4012 63.416 31.6572 63.36 31.8572 63.248C32.0652 63.144 32.2212 62.984 32.3252 62.768C32.4292 62.56 32.4812 62.3 32.4812 61.988V55.7H33.7172V62.288C33.7172 62.696 33.6252 63.056 33.4412 63.368C33.2652 63.68 33.0132 63.924 32.6852 64.1C32.3652 64.276 31.9892 64.364 31.5572 64.364ZM33.1292 54.308C32.8652 54.308 32.6612 54.24 32.5172 54.104C32.3732 53.968 32.3012 53.776 32.3012 53.528C32.3012 53.296 32.3732 53.108 32.5172 52.964C32.6692 52.82 32.8732 52.748 33.1292 52.748C33.3932 52.748 33.5972 52.816 33.7412 52.952C33.8852 53.088 33.9572 53.28 33.9572 53.528C33.9572 53.76 33.8812 53.948 33.7292 54.092C33.5852 54.236 33.3852 54.308 33.1292 54.308ZM37.697 62.12C37.249 62.12 36.857 62.016 36.521 61.808C36.193 61.6 35.937 61.308 35.753 60.932C35.577 60.556 35.489 60.108 35.489 59.588V55.7H36.725V59.252C36.725 59.62 36.781 59.94 36.893 60.212C37.013 60.476 37.181 60.68 37.397 60.824C37.621 60.968 37.889 61.04 38.201 61.04C38.433 61.04 38.645 61.004 38.837 60.932C39.029 60.852 39.193 60.744 39.329 60.608C39.473 60.472 39.585 60.308 39.665 60.116C39.745 59.924 39.785 59.716 39.785 59.492V55.7H41.021V62H39.785V60.68L40.001 60.536C39.905 60.832 39.741 61.1 39.509 61.34C39.285 61.58 39.017 61.772 38.705 61.916C38.393 62.052 38.057 62.12 37.697 62.12ZM44.8546 62.12C44.3266 62.12 43.8506 62.028 43.4266 61.844C43.0026 61.66 42.6506 61.388 42.3706 61.028L43.2106 60.308C43.4506 60.588 43.7106 60.792 43.9906 60.92C44.2786 61.04 44.6026 61.1 44.9626 61.1C45.1066 61.1 45.2386 61.084 45.3586 61.052C45.4866 61.012 45.5946 60.956 45.6826 60.884C45.7786 60.812 45.8506 60.728 45.8986 60.632C45.9466 60.528 45.9706 60.416 45.9706 60.296C45.9706 60.088 45.8946 59.92 45.7426 59.792C45.6626 59.736 45.5346 59.676 45.3586 59.612C45.1906 59.54 44.9706 59.468 44.6986 59.396C44.2346 59.276 43.8546 59.14 43.5586 58.988C43.2626 58.836 43.0346 58.664 42.8746 58.472C42.7546 58.32 42.6666 58.156 42.6106 57.98C42.5546 57.796 42.5266 57.596 42.5266 57.38C42.5266 57.116 42.5826 56.876 42.6946 56.66C42.8146 56.436 42.9746 56.244 43.1746 56.084C43.3826 55.916 43.6226 55.788 43.8946 55.7C44.1746 55.612 44.4706 55.568 44.7826 55.568C45.0786 55.568 45.3706 55.608 45.6586 55.688C45.9546 55.768 46.2266 55.884 46.4746 56.036C46.7226 56.188 46.9306 56.368 47.0986 56.576L46.3906 57.356C46.2386 57.204 46.0706 57.072 45.8866 56.96C45.7106 56.84 45.5306 56.748 45.3466 56.684C45.1626 56.62 44.9946 56.588 44.8426 56.588C44.6746 56.588 44.5226 56.604 44.3866 56.636C44.2506 56.668 44.1346 56.716 44.0386 56.78C43.9506 56.844 43.8826 56.924 43.8346 57.02C43.7866 57.116 43.7626 57.224 43.7626 57.344C43.7706 57.448 43.7946 57.548 43.8346 57.644C43.8826 57.732 43.9466 57.808 44.0266 57.872C44.1146 57.936 44.2466 58.004 44.4226 58.076C44.5986 58.148 44.8226 58.216 45.0946 58.28C45.4946 58.384 45.8226 58.5 46.0786 58.628C46.3426 58.748 46.5506 58.888 46.7026 59.048C46.8626 59.2 46.9746 59.376 47.0386 59.576C47.1026 59.776 47.1346 60 47.1346 60.248C47.1346 60.608 47.0306 60.932 46.8226 61.22C46.6226 61.5 46.3506 61.72 46.0066 61.88C45.6626 62.04 45.2786 62.12 44.8546 62.12ZM49.2768 62V54.092H50.5128V62H49.2768ZM47.9688 56.9V55.7H51.9768V56.9H47.9688ZM55.9837 62.12C55.3357 62.12 54.7597 61.984 54.2557 61.712C53.7597 61.432 53.3677 61.052 53.0797 60.572C52.7997 60.092 52.6597 59.54 52.6597 58.916C52.6597 58.42 52.7397 57.968 52.8997 57.56C53.0597 57.152 53.2797 56.8 53.5597 56.504C53.8477 56.2 54.1877 55.968 54.5797 55.808C54.9797 55.64 55.4117 55.556 55.8757 55.556C56.2837 55.556 56.6637 55.636 57.0157 55.796C57.3677 55.948 57.6717 56.16 57.9277 56.432C58.1917 56.704 58.3917 57.028 58.5277 57.404C58.6717 57.772 58.7397 58.176 58.7317 58.616L58.7197 59.144H53.5717L53.2957 58.16H57.6517L57.4717 58.364V58.076C57.4477 57.812 57.3597 57.576 57.2077 57.368C57.0557 57.16 56.8637 56.996 56.6317 56.876C56.3997 56.756 56.1477 56.696 55.8757 56.696C55.4437 56.696 55.0797 56.78 54.7837 56.948C54.4877 57.108 54.2637 57.348 54.1117 57.668C53.9597 57.98 53.8837 58.368 53.8837 58.832C53.8837 59.272 53.9757 59.656 54.1597 59.984C54.3437 60.304 54.6037 60.552 54.9397 60.728C55.2757 60.904 55.6637 60.992 56.1037 60.992C56.4157 60.992 56.7037 60.94 56.9677 60.836C57.2397 60.732 57.5317 60.544 57.8437 60.272L58.4677 61.148C58.2757 61.34 58.0397 61.508 57.7597 61.652C57.4877 61.796 57.1957 61.912 56.8837 62C56.5797 62.08 56.2797 62.12 55.9837 62.12ZM62.1749 62.12C61.6469 62.12 61.1709 62.028 60.7469 61.844C60.3229 61.66 59.9709 61.388 59.6909 61.028L60.5309 60.308C60.7709 60.588 61.0309 60.792 61.3109 60.92C61.5989 61.04 61.9229 61.1 62.2829 61.1C62.4269 61.1 62.5589 61.084 62.6789 61.052C62.8069 61.012 62.9149 60.956 63.0029 60.884C63.0989 60.812 63.1709 60.728 63.2189 60.632C63.2669 60.528 63.2909 60.416 63.2909 60.296C63.2909 60.088 63.2149 59.92 63.0629 59.792C62.9829 59.736 62.8549 59.676 62.6789 59.612C62.5109 59.54 62.2909 59.468 62.0189 59.396C61.5549 59.276 61.1749 59.14 60.8789 58.988C60.5829 58.836 60.3549 58.664 60.1949 58.472C60.0749 58.32 59.9869 58.156 59.9309 57.98C59.8749 57.796 59.8469 57.596 59.8469 57.38C59.8469 57.116 59.9029 56.876 60.0149 56.66C60.1349 56.436 60.2949 56.244 60.4949 56.084C60.7029 55.916 60.9429 55.788 61.2149 55.7C61.4949 55.612 61.7909 55.568 62.1029 55.568C62.3989 55.568 62.6909 55.608 62.9789 55.688C63.2749 55.768 63.5469 55.884 63.7949 56.036C64.0429 56.188 64.2509 56.368 64.4189 56.576L63.7109 57.356C63.5589 57.204 63.3909 57.072 63.2069 56.96C63.0309 56.84 62.8509 56.748 62.6669 56.684C62.4829 56.62 62.3149 56.588 62.1629 56.588C61.9949 56.588 61.8429 56.604 61.7069 56.636C61.5709 56.668 61.4549 56.716 61.3589 56.78C61.2709 56.844 61.2029 56.924 61.1549 57.02C61.1069 57.116 61.0829 57.224 61.0829 57.344C61.0909 57.448 61.1149 57.548 61.1549 57.644C61.2029 57.732 61.2669 57.808 61.3469 57.872C61.4349 57.936 61.5669 58.004 61.7429 58.076C61.9189 58.148 62.1429 58.216 62.4149 58.28C62.8149 58.384 63.1429 58.5 63.3989 58.628C63.6629 58.748 63.8709 58.888 64.0229 59.048C64.1829 59.2 64.2949 59.376 64.3589 59.576C64.4229 59.776 64.4549 60 64.4549 60.248C64.4549 60.608 64.3509 60.932 64.1429 61.22C63.9429 61.5 63.6709 61.72 63.3269 61.88C62.9829 62.04 62.5989 62.12 62.1749 62.12Z" fill="white"/>
<path d="M37.8125 45.5L36.9125 38.3C36.425 38.1125 35.9656 37.8875 35.5343 37.625C35.1031 37.3625 34.6812 37.0812 34.2687 36.7812L27.575 39.5938L21.3875 28.9062L27.1812 24.5187C27.1437 24.2562 27.125 24.0031 27.125 23.7594V22.2406C27.125 21.9969 27.1437 21.7437 27.1812 21.4812L21.3875 17.0938L27.575 6.40625L34.2687 9.21875C34.6812 8.91875 35.1125 8.6375 35.5625 8.375C36.0125 8.1125 36.4625 7.8875 36.9125 7.7L37.8125 0.5H50.1875L51.0875 7.7C51.575 7.8875 52.0343 8.1125 52.4656 8.375C52.8968 8.6375 53.3187 8.91875 53.7312 9.21875L60.425 6.40625L66.6125 17.0938L60.8187 21.4812C60.8562 21.7437 60.875 21.9969 60.875 22.2406V23.7594C60.875 24.0031 60.8375 24.2562 60.7625 24.5187L66.5562 28.9062L60.3687 39.5938L53.7312 36.7812C53.3187 37.0812 52.8875 37.3625 52.4375 37.625C51.9875 37.8875 51.5375 38.1125 51.0875 38.3L50.1875 45.5H37.8125ZM41.75 41H46.1937L46.9812 35.0375C48.1437 34.7375 49.2218 34.2969 50.2156 33.7156C51.2093 33.1344 52.1187 32.4312 52.9437 31.6062L58.5125 33.9125L60.7062 30.0875L55.8687 26.4312C56.0562 25.9062 56.1875 25.3531 56.2625 24.7719C56.3375 24.1906 56.375 23.6 56.375 23C56.375 22.4 56.3375 21.8094 56.2625 21.2281C56.1875 20.6469 56.0562 20.0938 55.8687 19.5688L60.7062 15.9125L58.5125 12.0875L52.9437 14.45C52.1187 13.5875 51.2093 12.8656 50.2156 12.2844C49.2218 11.7031 48.1437 11.2625 46.9812 10.9625L46.25 5H41.8062L41.0187 10.9625C39.8562 11.2625 38.7781 11.7031 37.7843 12.2844C36.7906 12.8656 35.8812 13.5687 35.0562 14.3937L29.4875 12.0875L27.2937 15.9125L32.1312 19.5125C31.9437 20.075 31.8125 20.6375 31.7375 21.2C31.6625 21.7625 31.625 22.3625 31.625 23C31.625 23.6 31.6625 24.1812 31.7375 24.7437C31.8125 25.3062 31.9437 25.8687 32.1312 26.4312L27.2937 30.0875L29.4875 33.9125L35.0562 31.55C35.8812 32.4125 36.7906 33.1344 37.7843 33.7156C38.7781 34.2969 39.8562 34.7375 41.0187 35.0375L41.75 41ZM44.1125 30.875C46.2875 30.875 48.1437 30.1062 49.6812 28.5687C51.2187 27.0312 51.9875 25.175 51.9875 23C51.9875 20.825 51.2187 18.9688 49.6812 17.4312C48.1437 15.8937 46.2875 15.125 44.1125 15.125C41.9 15.125 40.0343 15.8937 38.5156 17.4312C36.9968 18.9688 36.2375 20.825 36.2375 23C36.2375 25.175 36.9968 27.0312 38.5156 28.5687C40.0343 30.1062 41.9 30.875 44.1125 30.875Z" fill="white"/>
</svg>
